<svg width="481" height="509" viewBox="0 0 481 509" fill="none" xmlns="http://www.w3.org/2000/svg">
<path d="M21.2084 464.464C123.009 453.858 183.453 471.886 240.715 500.518C301.159 467.644 382.811 452.798 461.283 465.523L480.37 506.879C388.75 471.249 277.83 488.852 240.715 509C166.062 478.46 61.5043 483.55 0 509L21.2084 464.464Z" fill="white"/>
<path d="M42.4171 409.323L19.0879 447.498C126.19 434.773 183.453 462.344 240.716 496.278C302.22 452.8 390.235 436.894 460.223 445.378L440.075 409.323C355.241 409.323 287.374 447.498 240.716 492.036C192.36 444.529 117.707 409.323 42.4171 409.323Z" fill="white"/>
<path d="M119.827 407.202C149.519 381.751 168.606 334.033 163.304 299.039C196.389 302.432 215.972 290.555 221.627 284.193L240.715 309.643L261.923 284.193C289.494 303.28 299.038 299.039 317.065 299.039C314.52 354.181 345.697 394.123 361.603 407.202C314.944 416.533 259.803 453.86 240.715 480.371C223.748 451.739 156.942 413.564 119.827 407.202Z" fill="white"/>
<path d="M68.5923 246.017C65.7471 358.421 94.3782 374.327 109.224 397.657C152.701 353.119 150.581 304.34 147.399 281.011C191.513 292.039 217.387 275.002 224.81 265.104L240.716 289.494C241.07 289.14 244.746 283.768 256.623 265.104C276.983 289.706 316.006 288.08 332.973 284.192C327.034 341.03 355.242 384.932 372.208 397.657C414.625 343.575 410.383 302.219 411.444 243.896L388.115 246.017C423.109 205.721 407.202 146.337 379.631 116.646C369.451 125.129 354.181 127.25 347.819 127.25C448.559 218.446 293.737 326.609 240.716 211.023C186.635 327.669 32.8741 216.325 132.554 128.31C125.767 129.158 107.81 120.887 99.6805 116.646C56.2033 174.969 74.2304 227.99 91.1971 246.017H68.5923Z" fill="white"/>
<path d="M240.716 131.493C213.569 98.4079 165.78 82.3603 145.278 78.472C234.354 27.5719 319.187 66.8074 337.214 78.472C294.798 88.0158 266.166 100.741 240.716 131.493Z" fill="white"/>
<path d="M43.4771 32.873L77.4105 2.12084L93.3168 41.3564L76.3501 31.8126C75.2896 46.305 86.9543 78.259 142.096 90.1357C197.238 102.012 230.818 135.38 240.715 150.58C246.724 140.329 268.286 112.404 321.307 96.4982C401.899 78.4711 404.02 42.4168 405.08 31.8126C399.99 32.6609 390.234 38.5286 385.993 41.3564L402.959 0L434.772 32.873C434.772 32.873 420.986 29.6918 417.805 29.6918C427.137 69.5635 401.899 92.8421 389.174 99.6795C332.335 130.22 268.286 124.069 240.715 182.392C208.903 118.767 145.277 132.552 91.1959 99.6795C57.2625 76.3502 60.4438 47.7189 62.5646 29.6918C59.1713 29.6918 48.4257 31.8126 43.4771 32.873Z" fill="#7DCA40"/>
<circle cx="169.667" cy="190.875" r="46.6585" fill="#188CCD"/>
<circle cx="169.668" cy="190.875" r="27.5709" fill="#232323"/>
<circle cx="182.392" cy="169.669" r="14.8459" fill="#F2FAFD"/>
<circle cx="46.6585" cy="46.6585" r="46.6585" transform="matrix(-1 0 0 1 354.18 144.216)" fill="#188CCD"/>
<circle cx="27.5709" cy="27.5709" r="27.5709" transform="matrix(-1 0 0 1 335.092 163.304)" fill="#232323"/>
<circle cx="14.8459" cy="14.8459" r="14.8459" transform="matrix(-1 0 0 1 309.643 154.823)" fill="#F2FAFD"/>
</svg>
