<svg xmlns="http://www.w3.org/2000/svg" xmlns:xlink="http://www.w3.org/1999/xlink" width="1000" zoomAndPan="magnify" viewBox="0 0 750 749.999995" height="1000" preserveAspectRatio="xMidYMid meet" version="1.0"><path fill="#4285f4" d="M 103.144531 610.144531 L 203.4375 610.144531 L 203.4375 366.578125 L 60.160156 259.125 L 60.160156 567.164062 C 60.160156 590.945312 79.433594 610.144531 103.144531 610.144531 " fill-opacity="1" fill-rule="nonzero"/><path fill="#34a853" d="M 547.292969 610.144531 L 647.582031 610.144531 C 671.367188 610.144531 690.566406 590.875 690.566406 567.164062 L 690.566406 259.125 L 547.292969 366.578125 " fill-opacity="1" fill-rule="nonzero"/><path fill="#fbbc04" d="M 547.292969 180.324219 L 547.292969 366.578125 L 690.566406 259.125 L 690.566406 201.816406 C 690.566406 148.660156 629.890625 118.359375 587.410156 150.238281 " fill-opacity="1" fill-rule="nonzero"/><path fill="#ea4335" d="M 203.4375 366.578125 L 203.4375 180.324219 L 375.363281 309.269531 L 547.292969 180.324219 L 547.292969 366.578125 L 375.363281 495.527344 " fill-opacity="1" fill-rule="nonzero"/><path fill="#c5221f" d="M 60.160156 201.816406 L 60.160156 259.125 L 203.4375 366.578125 L 203.4375 180.324219 L 163.320312 150.238281 C 120.765625 118.359375 60.160156 148.660156 60.160156 201.816406 " fill-opacity="1" fill-rule="nonzero"/></svg>