<svg width="878" height="635" viewBox="0 0 878 635" fill="none" xmlns="http://www.w3.org/2000/svg">
<path d="M0 604.375L27.5623 499H62.0156L89.5778 604.375H69.2045L63.5129 581.193H26.0649L20.3713 604.375H0ZM30.7079 562.827H58.8699L46.1363 511.495H43.4395L30.7079 562.827ZM130.141 606.483C122.95 606.483 116.41 604.977 110.517 601.967C104.724 598.956 100.132 594.59 96.7366 588.87C93.3414 583.15 91.6427 576.225 91.6427 568.096V565.989C91.6427 557.86 93.3414 550.935 96.7366 545.215C100.132 539.494 104.724 535.129 110.517 532.118C116.41 529.107 122.95 527.602 130.141 527.602C137.232 527.602 143.324 528.856 148.416 531.365C153.509 533.874 157.603 537.336 160.698 541.752C163.894 546.068 165.991 550.985 166.99 556.505L148.715 560.419C148.317 557.408 147.417 554.698 146.019 552.29C144.622 549.881 142.623 547.975 140.027 546.569C137.532 545.164 134.386 544.462 130.59 544.462C126.794 544.462 123.351 545.315 120.254 547.021C117.259 548.627 114.862 551.086 113.065 554.397C111.366 557.609 110.517 561.573 110.517 566.29V567.795C110.517 572.512 111.366 576.526 113.065 579.838C114.862 583.049 117.259 585.508 120.254 587.214C123.351 588.82 126.794 589.623 130.59 589.623C136.282 589.623 140.577 588.168 143.473 585.257C146.469 582.247 148.365 578.333 149.164 573.515L167.44 577.881C166.142 583.2 163.894 588.067 160.698 592.483C157.603 596.798 153.509 600.211 148.416 602.72C143.324 605.228 137.232 606.483 130.141 606.483ZM198.589 606.483C193.296 606.483 188.552 605.58 184.358 603.773C180.164 601.866 176.817 599.157 174.321 595.644C171.924 592.031 170.727 587.666 170.727 582.548C170.727 577.429 171.924 573.164 174.321 569.752C176.817 566.24 180.212 563.63 184.507 561.924C188.901 560.118 193.894 559.215 199.487 559.215H219.86V555C219.86 551.487 218.761 548.627 216.563 546.419C214.368 544.111 210.872 542.957 206.078 542.957C201.385 542.957 197.889 544.061 195.592 546.268C193.296 548.376 191.797 551.136 191.098 554.548L173.722 548.677C174.921 544.863 176.817 541.401 179.415 538.29C182.11 535.079 185.656 532.519 190.05 530.613C194.544 528.605 199.986 527.602 206.378 527.602C216.165 527.602 223.903 530.061 229.597 534.978C235.288 539.896 238.134 547.021 238.134 556.354V584.204C238.134 587.214 239.533 588.72 242.328 588.72H248.32V604.375H235.737C232.042 604.375 228.997 603.472 226.6 601.666C224.203 599.859 223.006 597.451 223.006 594.44V594.289H220.158C219.759 595.494 218.86 597.099 217.463 599.107C216.064 601.013 213.867 602.72 210.872 604.225C207.875 605.73 203.782 606.483 198.589 606.483ZM201.884 591.128C207.177 591.128 211.472 589.673 214.766 586.763C218.161 583.752 219.86 579.788 219.86 574.87V573.365H200.835C197.339 573.365 194.594 574.118 192.596 575.623C190.599 577.128 189.601 579.236 189.601 581.945C189.601 584.655 190.649 586.863 192.747 588.569C194.844 590.275 197.889 591.128 201.884 591.128ZM283.127 606.483C277.235 606.483 271.692 605.028 266.499 602.117C261.406 599.107 257.312 594.741 254.217 589.021C251.121 583.3 249.574 576.376 249.574 568.247V565.838C249.574 557.709 251.121 550.784 254.217 545.064C257.312 539.344 261.406 535.028 266.499 532.118C271.593 529.107 277.136 527.602 283.127 527.602C287.622 527.602 291.365 528.154 294.362 529.258C297.457 530.261 299.955 531.566 301.852 533.172C303.748 534.777 305.197 536.484 306.196 538.29H308.892V499H327.766V604.375H309.192V595.343H306.495C304.797 598.153 302.15 600.712 298.556 603.021C295.06 605.329 289.918 606.483 283.127 606.483ZM288.819 589.924C294.611 589.924 299.455 588.067 303.35 584.354C307.244 580.54 309.192 575.021 309.192 567.795V566.29C309.192 559.064 307.244 553.595 303.35 549.881C299.554 546.068 294.712 544.161 288.819 544.161C283.027 544.161 278.185 546.068 274.288 549.881C270.394 553.595 268.448 559.064 268.448 566.29V567.795C268.448 575.021 270.394 580.54 274.288 584.354C278.185 588.067 283.027 589.924 288.819 589.924ZM375.056 606.483C367.666 606.483 361.125 604.927 355.433 601.816C349.84 598.605 345.447 594.139 342.251 588.418C339.156 582.598 337.608 575.773 337.608 567.946V566.139C337.608 558.311 339.156 551.537 342.251 545.817C345.346 539.996 349.691 535.53 355.282 532.419C360.875 529.208 367.366 527.602 374.756 527.602C382.048 527.602 388.387 529.258 393.781 532.57C399.173 535.781 403.367 540.297 406.364 546.118C409.36 551.838 410.858 558.512 410.858 566.139V572.612H356.782C356.981 577.73 358.879 581.895 362.473 585.107C366.068 588.318 370.463 589.924 375.656 589.924C380.949 589.924 384.843 588.77 387.339 586.462C389.836 584.153 391.734 581.594 393.032 578.784L408.461 586.913C407.062 589.522 405.015 592.383 402.318 595.494C399.722 598.504 396.228 601.114 391.833 603.322C387.439 605.429 381.846 606.483 375.056 606.483ZM356.931 558.462H391.684C391.283 554.146 389.536 550.684 386.441 548.075C383.444 545.466 379.5 544.161 374.607 544.161C369.513 544.161 365.47 545.466 362.473 548.075C359.477 550.684 357.629 554.146 356.931 558.462ZM420.168 604.375V529.709H438.742V537.838H441.439C442.737 535.329 444.884 533.172 447.879 531.365C450.876 529.459 454.82 528.505 459.713 528.505C465.006 528.505 469.251 529.559 472.447 531.666C475.643 533.674 478.088 536.333 479.786 539.645H482.483C484.18 536.433 486.577 533.774 489.672 531.666C492.768 529.559 497.163 528.505 502.855 528.505C507.449 528.505 511.593 529.509 515.288 531.516C519.082 533.423 522.079 536.383 524.276 540.397C526.573 544.311 527.72 549.279 527.72 555.301V604.375H508.846V556.655C508.846 552.541 507.797 549.48 505.7 547.473C503.603 545.365 500.657 544.311 496.863 544.311C492.568 544.311 489.223 545.716 486.826 548.526C484.53 551.236 483.381 555.15 483.381 560.268V604.375H464.507V556.655C464.507 552.541 463.458 549.48 461.361 547.473C459.264 545.365 456.318 544.311 452.524 544.311C448.229 544.311 444.884 545.716 442.487 548.526C440.189 551.236 439.042 555.15 439.042 560.268V604.375H420.168ZM547.449 634.483V617.924H587.894C590.692 617.924 592.088 616.418 592.088 613.408V594.59H589.391C588.592 596.297 587.345 598.003 585.648 599.709C583.949 601.415 581.653 602.82 578.757 603.924C575.861 605.028 572.166 605.58 567.672 605.58C561.879 605.58 556.788 604.275 552.392 601.666C548.099 598.956 544.752 595.243 542.355 590.526C539.96 585.809 538.761 580.39 538.761 574.268V529.709H557.635V572.763C557.635 578.383 558.983 582.598 561.68 585.408C564.476 588.218 568.42 589.623 573.514 589.623C579.306 589.623 583.8 587.716 586.996 583.902C590.19 579.988 591.788 574.569 591.788 567.645V529.709H610.664V617.622C610.664 622.741 609.165 626.805 606.17 629.817C603.174 632.927 599.179 634.483 594.185 634.483H547.449Z" fill="#F2FAFD"/>
<path d="M623.576 604.375V499H643.35V542.505H682.297V499H702.071V604.375H682.297V560.569H643.35V604.375H623.576ZM743.3 605.58C737.508 605.58 732.416 604.275 728.023 601.666C723.728 598.956 720.383 595.243 717.986 590.526C715.589 585.809 714.39 580.39 714.39 574.268V529.709H733.266V572.763C733.266 578.383 734.612 582.598 737.309 585.408C740.106 588.218 744.051 589.623 749.143 589.623C754.935 589.623 759.429 587.716 762.625 583.902C765.821 579.988 767.419 574.569 767.419 567.645V529.709H786.293V604.375H767.717V594.59H765.022C763.823 597.099 761.577 599.558 758.28 601.967C754.985 604.375 749.992 605.58 743.3 605.58ZM844.445 606.483C837.755 606.483 832.611 605.329 829.016 603.021C825.422 600.712 822.775 598.153 821.076 595.343H818.382V604.375H799.806V499H818.679V538.29H821.376C822.475 536.484 823.922 534.777 825.721 533.172C827.617 531.566 830.065 530.261 833.061 529.258C836.157 528.154 839.95 527.602 844.445 527.602C850.438 527.602 855.979 529.107 861.072 532.118C866.166 535.028 870.26 539.344 873.355 545.064C876.453 550.784 878 557.709 878 565.838V568.247C878 576.376 876.453 583.3 873.355 589.021C870.26 594.741 866.166 599.107 861.072 602.117C855.979 605.028 850.438 606.483 844.445 606.483ZM838.753 589.924C844.545 589.924 849.389 588.067 853.284 584.354C857.178 580.54 859.124 575.021 859.124 567.795V566.29C859.124 559.064 857.178 553.595 853.284 549.881C849.488 546.068 844.646 544.161 838.753 544.161C832.961 544.161 828.116 546.068 824.222 549.881C820.328 553.595 818.382 559.064 818.382 566.29V567.795C818.382 575.021 820.328 580.54 824.222 584.354C828.116 588.067 832.961 589.924 838.753 589.924Z" fill="#188CCD"/>
<path d="M265.48 29.2382L295.513 1.88634L309.591 36.7835L294.575 28.295C293.637 41.1851 303.96 69.6058 352.764 80.1692C401.567 90.7327 431.287 120.411 440.047 133.93C445.365 124.812 464.449 99.9759 511.375 85.8283C582.704 69.7944 584.581 37.7267 585.519 28.295C581.014 29.0495 572.38 34.2684 568.626 36.7835L583.642 0L611.798 29.2382C611.798 29.2382 599.597 26.4087 596.782 26.4087C605.041 61.8717 582.704 82.5766 571.441 88.6577C521.136 115.821 464.449 110.351 440.047 162.225C411.891 105.635 355.579 117.896 307.714 88.6577C277.681 67.908 280.497 42.4427 282.374 26.4087C279.371 26.4087 269.86 28.295 265.48 29.2382Z" fill="#7DCA40"/>
<path d="M440.047 116.953C416.021 87.5261 373.724 73.2529 355.579 69.7943C434.416 24.5224 509.498 59.4195 525.453 69.7943C487.912 78.2828 462.572 89.601 440.047 116.953Z" fill="#232323"/>
<path d="M287.707 218.814C285.189 318.79 310.529 332.938 323.669 353.688C362.148 314.075 360.271 270.689 357.455 249.939C396.498 259.748 419.398 244.594 425.968 235.792L440.046 257.484C440.359 257.17 443.613 252.392 454.124 235.792C472.144 257.673 506.682 256.227 521.698 252.769C516.443 303.322 541.407 342.369 556.424 353.688C593.965 305.586 590.211 268.803 591.149 216.928L570.502 218.814C601.473 182.974 587.395 130.157 562.993 103.748C553.984 111.294 540.469 113.18 534.838 113.18C623.998 194.292 486.973 290.495 440.046 187.69C392.181 291.439 256.094 192.406 344.316 114.123C338.31 114.878 322.417 107.521 315.221 103.748C276.742 155.623 292.697 202.781 307.713 218.814H287.707Z" fill="#232323"/>
<path d="M377.165 211.27C399.972 211.27 418.461 192.69 418.461 169.77C418.461 146.851 399.972 128.271 377.165 128.271C354.359 128.271 335.87 146.851 335.87 169.77C335.87 192.69 354.359 211.27 377.165 211.27Z" fill="#188CCD"/>
<path d="M499.173 211.27C476.367 211.27 457.878 192.69 457.878 169.77C457.878 146.851 476.367 128.271 499.173 128.271C521.98 128.271 540.469 146.851 540.469 169.77C540.469 192.69 521.98 211.27 499.173 211.27Z" fill="#188CCD"/>
<path d="M388.427 164.11C395.683 164.11 401.566 158.199 401.566 150.906C401.566 143.613 395.683 137.702 388.427 137.702C381.17 137.702 375.287 143.613 375.287 150.906C375.287 158.199 381.17 164.11 388.427 164.11Z" fill="#F2FAFD"/>
<path d="M487.912 164.11C480.656 164.11 474.773 158.199 474.773 150.906C474.773 143.613 480.656 137.702 487.912 137.702C495.169 137.702 501.052 143.613 501.052 150.906C501.052 158.199 495.169 164.11 487.912 164.11Z" fill="#F2FAFD"/>
<path d="M377.166 194.292C390.643 194.292 401.568 183.313 401.568 169.77C401.568 156.227 390.643 145.248 377.166 145.248C363.69 145.248 352.765 156.227 352.765 169.77C352.765 183.313 363.69 194.292 377.166 194.292Z" fill="#232323"/>
<path d="M499.174 194.292C485.698 194.292 474.773 183.313 474.773 169.77C474.773 156.227 485.698 145.248 499.174 145.248C512.651 145.248 523.576 156.227 523.576 169.77C523.576 183.313 512.651 194.292 499.174 194.292Z" fill="#232323"/>
<path d="M333.055 362.177C359.334 339.541 376.227 297.099 371.535 265.975C400.817 268.993 418.148 258.429 423.154 252.77L440.047 275.406L458.818 252.77C483.22 269.747 491.667 265.975 507.622 265.975C505.369 315.019 532.962 350.545 547.04 362.177C505.745 370.478 456.941 403.677 440.047 427.255C425.031 401.791 365.903 367.836 333.055 362.177Z" fill="#232323"/>
<path d="M264.54 364.064L243.893 398.018C338.684 386.7 389.365 411.222 440.045 441.405C494.48 402.734 572.378 388.586 634.322 396.132L616.489 364.064C541.407 364.064 481.341 398.018 440.045 437.633C397.248 395.377 331.176 364.064 264.54 364.064Z" fill="#232323"/>
<path d="M245.771 413.111C335.869 403.676 389.366 419.709 440.046 445.176C493.543 415.937 565.81 402.733 635.259 414.051L652.153 450.834C571.065 419.144 472.895 434.801 440.046 452.72C373.974 425.557 281.435 430.084 227 452.72L245.771 413.111Z" fill="#232323"/>
</svg>
