<svg xmlns="http://www.w3.org/2000/svg" xmlns:xlink="http://www.w3.org/1999/xlink" width="1000" zoomAndPan="magnify" viewBox="0 0 750 749.999995" height="1000" preserveAspectRatio="xMidYMid meet" version="1.0"><defs><g/><clipPath id="ec3deba81d"><path d="M 137 39.035156 L 615.71875 39.035156 L 615.71875 336 L 137 336 Z M 137 39.035156 " clip-rule="nonzero"/></clipPath></defs><g fill="#007aff" fill-opacity="1"><g transform="translate(152.089522, 695.653735)"><g><path d="M 272.375 -469.125 L 461.734375 0 L 346.875 0 L 312.1875 -93.828125 L 133.625 -93.828125 L 98.9375 0 L -15.921875 0 L 173.4375 -469.125 Z M 275.796875 -187.65625 L 223.46875 -324.125 L 222.34375 -324.125 L 170.03125 -187.65625 Z M 275.796875 -187.65625 "/></g></g></g><g clip-path="url(#ec3deba81d)"><path fill="#007aff" d="M 496.226562 82.472656 L 379.589844 39.554688 L 378.226562 39.058594 L 376.859375 39.554688 L 260.214844 82.472656 L 140.859375 126.382812 L 165.914062 135.597656 L 194.835938 146.242188 C 188.5625 158.246094 182.746094 180.894531 190.605469 220.632812 C 184.585938 223.046875 180.332031 228.921875 180.332031 235.804688 C 180.332031 240.726562 182.507812 245.125 185.949219 248.132812 C 182.378906 291.0625 153.351562 297.039062 143.855469 297.835938 C 140.871094 298.089844 138.179688 300.074219 137.453125 302.988281 C 134.390625 315.414062 168.121094 327.980469 188.144531 334.265625 C 196.988281 337.039062 206.597656 332.933594 210.585938 324.558594 C 226.140625 291.902344 215.414062 260.683594 208.839844 246.722656 C 211.4375 243.832031 213.027344 240.011719 213.027344 235.8125 C 213.027344 228.5625 208.3125 222.433594 201.789062 220.285156 C 199.835938 204.503906 197.132812 169.574219 208.46875 151.261719 L 240.566406 163.074219 C 245.9375 144.644531 277.652344 138.082031 288.722656 135.800781 C 313.007812 130.789062 345.523438 128.019531 380.28125 128.019531 C 414.871094 128.019531 447.207031 130.765625 471.320312 135.75 C 482.117188 137.976562 512.753906 144.316406 518.878906 161.964844 L 590.535156 135.605469 L 615.589844 126.386719 Z M 496.226562 82.472656 " fill-opacity="1" fill-rule="nonzero"/></g><path fill="#007aff" d="M 250.121094 168.585938 L 250.121094 244.253906 C 287.332031 219.671875 331.933594 205.351562 379.878906 205.351562 C 427.824219 205.351562 472.417969 219.671875 509.636719 244.253906 L 509.636719 168.425781 C 509.621094 128.199219 250.101562 128.359375 250.121094 168.585938 Z M 250.121094 168.585938 " fill-opacity="1" fill-rule="nonzero"/></svg>